            <svg
              fill="white"
              class="chat-type-icon"
              viewBox="0 0 20 20"
              xmlns="http://www.w3.org/2000/svg"
            >
              <path
                class="chat-type-icon-path"
                d="M10 0C4.5 0 0 4.5 0 10s4.5 10 10 10 10-4.5 10-10S15.5 0 10 0Zm0 3c1.7 0 3 1.3 3 3s-1.3 3-3 3-3-1.3-3-3 1.3-3 3-3Zm0 14.2c-2.5 0-4.7-1.3-6-3.2 0-2 4-3.1 6-3.1s6 1.1 6 3.1c-1.3 1.9-3.5 3.2-6 3.2Z"
                fill-rule="evenodd"
              ></path>
            </svg>