<svg fill="white" viewBox="0 0 24 24" xmlns="http://www.w3.org/2000/svg"><path clip-rule="evenodd" d="M19 3a1 1 0 0 0-.614.21l-4.23 3.29H6a4 4 0 0 0-4 4v1a4 4 0 0 0 4 4h8.157l4.23 3.29A1 1 0 0 0 19 19h2a1 1 0 0 0 1-1V4a1 1 0 0 0-1-1h-2Z" fill="#ffffff" fill-rule="evenodd" class="fill-000000"></path><path clip-rule="evenodd" d="M6 13.5a1 1 0 0 0-.965 1.263l1.199 4.395A2.5 2.5 0 0 0 8.646 21h.89a2.5 2.5 0 0 0 2.412-3.158l-.983-3.605A1 1 0 0 0 10 13.5H6Z" fill="#ffffff" fill-rule="evenodd" class="fill-000000"></path></svg>